<svg xmlns="http://www.w3.org/2000/svg" width="74.978" height="29.88" viewBox="0 0 74.978 29.88">
  <g id="그룹_255" data-name="그룹 255" transform="translate(-213.494 -653.607)">
    <g id="그룹_235" data-name="그룹 235" transform="translate(0 -2514.275)">
      <g id="그룹_216" data-name="그룹 216">
        <g id="그룹_212" data-name="그룹 212">
          <g id="그룹_210" data-name="그룹 210">
            <path id="패스_136" data-name="패스 136" d="M229.677,3168.438H214.535a.875.875,0,0,0-.868.866v27.166a.868.868,0,0,0,1.735,0V3169.3c-.289.289-.578.58-.867.867h15.142a.867.867,0,0,0,0-1.733Z" fill="#fe3551"/>
          </g>
          <g id="그룹_211" data-name="그룹 211">
            <path id="패스_137" data-name="패스 137" d="M214.708,3195.6h-.347l.867.867v-27.338l-.867.867h15.316l-.867-.867v.346l.867-.868H214.708a.876.876,0,0,0-.867.868v26.992a.867.867,0,0,0,1.733,0v-26.992l-.866.867h14.969a.875.875,0,0,0,.867-.867v-.346a.875.875,0,0,0-.867-.867H214.361a.875.875,0,0,0-.867.867v27.338a.875.875,0,0,0,.867.867h.347A.867.867,0,0,0,214.708,3195.6Z" fill="#fe3551"/>
          </g>
        </g>
        <g id="그룹_215" data-name="그룹 215">
          <g id="그룹_213" data-name="그룹 213">
            <path id="패스_138" data-name="패스 138" d="M214.448,3180.835h15.143a.867.867,0,0,0,0-1.734H214.448a.867.867,0,0,0,0,1.734Z" fill="#fe3551"/>
          </g>
          <g id="그룹_214" data-name="그룹 214">
            <path id="패스_139" data-name="패스 139" d="M229.591,3179.274H214.448q.432.434.866.866v-.346l-.866.867h15.143l-.867-.867v.346a.867.867,0,0,0,1.734,0v-.346a.875.875,0,0,0-.867-.867H214.448a.875.875,0,0,0-.867.867v.346a.875.875,0,0,0,.867.867h15.143A.867.867,0,0,0,229.591,3179.274Z" fill="#fe3551"/>
          </g>
        </g>
      </g>
      <g id="그룹_223" data-name="그룹 223">
        <g id="그룹_219" data-name="그룹 219">
          <g id="그룹_217" data-name="그룹 217" transform="translate(233.496 3168.298)">
            <path id="패스_140" data-name="패스 140" d="M234.372,3181.069h14.863a.879.879,0,0,0,.876-.867v-11.037a.879.879,0,0,0-.876-.867H234.372a.879.879,0,0,0-.876.867v27.453a.876.876,0,0,0,1.751,0v-27.453q-.438.434-.874.867h14.863q-.435-.434-.874-.867V3180.2q.438-.433.874-.867H234.372a.867.867,0,0,0,0,1.734Z" transform="translate(-233.496 -3168.298)" fill="#41afa6"/>
          </g>
        </g>
        <g id="그룹_222" data-name="그룹 222" transform="translate(0 -0.029)">
          <g id="그룹_220" data-name="그룹 220">
            <path id="패스_143" data-name="패스 143" d="M248.2,3180.2v16.416a.866.866,0,0,0,1.732,0V3180.2a.866.866,0,0,0-1.732,0Z" fill="#41afa6"/>
          </g>
          <g id="그룹_221" data-name="그룹 221">
            <path id="패스_144" data-name="패스 144" d="M249.244,3195.751h-.35l.867.867V3180.2l-.867.867h.35l-.868-.867v16.416a.868.868,0,0,0,1.735,0V3180.2a.876.876,0,0,0-.867-.867h-.35a.875.875,0,0,0-.867.867v16.416a.875.875,0,0,0,.867.867h.35A.868.868,0,0,0,249.244,3195.751Z" fill="#41afa6"/>
          </g>
        </g>
      </g>
      <g id="그룹_229" data-name="그룹 229">
        <g id="그룹_226" data-name="그룹 226">
          <g id="그룹_224" data-name="그룹 224">
            <path id="패스_145" data-name="패스 145" d="M258.32,3181.257h6.192a.868.868,0,0,0,0-1.734H258.32a.868.868,0,0,0,0,1.734Z" fill="#41afa6"/>
          </g>
          <g id="그룹_225" data-name="그룹 225">
            <path id="패스_146" data-name="패스 146" d="M264.512,3179.694H258.32c.291.289.578.58.868.868v-.346c-.29.289-.577.578-.868.867h6.192l-.867-.867v.346a.866.866,0,0,0,1.732,0v-.346a.873.873,0,0,0-.865-.867H258.32a.875.875,0,0,0-.866.867v.346a.876.876,0,0,0,.866.869h6.192A.869.869,0,0,0,264.512,3179.694Z" fill="#41afa6"/>
          </g>
        </g>
        <g id="그룹_228" data-name="그룹 228">
          <g id="그룹_227" data-name="그룹 227">
            <path id="패스_147" data-name="패스 147" d="M269.688,3196.63q-3.72-13.518-7.441-27.031a.873.873,0,0,0-1.672,0l-7.441,27.031,1.067-.606-.272-.111c.2.357.4.711.606,1.068q3.855-14.008,7.712-28.017h-1.672q3.855,14.007,7.713,28.017c.2-.357.4-.711.605-1.068l-.271.111c-1.024.413-.577,2.09.461,1.672.089-.037.179-.074.271-.109a.887.887,0,0,0,.605-1.067q-3.855-14.009-7.712-28.017a.873.873,0,0,0-1.672,0q-3.858,14.007-7.712,28.017a.888.888,0,0,0,.6,1.067l.272.109a.867.867,0,0,0,1.066-.6q3.721-13.518,7.441-27.031h-1.672q3.72,13.514,7.441,27.031A.868.868,0,0,0,269.688,3196.63Z" fill="#41afa6"/>
          </g>
        </g>
      </g>
      <g id="그룹_234" data-name="그룹 234">
        <g id="그룹_231" data-name="그룹 231">
          <g id="그룹_230" data-name="그룹 230">
            <path id="패스_148" data-name="패스 148" d="M272.983,3196.024l-.24-.066.6,1.066q1.893-14.015,3.787-28.037h-1.672q1.939,5.674,3.877,11.35c.133-.328.266-.654.4-.981-.074.051-.149.1-.221.153.424.172.85.344,1.273.517l-3.556-10.408c-.248-.723-1.549-.924-1.674,0q-1.822,13.506-3.646,27.012c-.149,1.092,1.521,1.564,1.671.461q1.822-13.506,3.649-27.012h-1.674q1.781,5.2,3.559,10.408a.874.874,0,0,0,1.273.518c.072-.051.147-.1.219-.15a.88.88,0,0,0,.4-.981q-1.939-5.672-3.879-11.348c-.248-.722-1.547-.923-1.672,0q-1.895,14.019-3.787,28.037a.893.893,0,0,0,.606,1.069l.238.064A.868.868,0,0,0,272.983,3196.024Z" fill="#41afa6"/>
          </g>
        </g>
        <g id="그룹_233" data-name="그룹 233">
          <g id="그룹_232" data-name="그룹 232">
            <path id="패스_149" data-name="패스 149" d="M288.219,3196.63q-1.825-13.506-3.648-27.012c-.125-.924-1.426-.723-1.674,0q-1.776,5.2-3.557,10.408l1.274-.517-.219-.153c.133.327.266.653.4.981q1.939-5.674,3.877-11.35H283q1.893,14.019,3.788,28.037.3-.532.6-1.066c-.08.022-.158.045-.24.066a.868.868,0,0,0,.463,1.672l.238-.064a.893.893,0,0,0,.607-1.069q-1.895-14.017-3.789-28.037c-.125-.923-1.423-.722-1.672,0q-1.938,5.676-3.876,11.348a.874.874,0,0,0,.4.981c.072.05.147.1.221.15a.875.875,0,0,0,1.273-.518q1.776-5.2,3.557-10.408H282.9l3.65,27.012C286.7,3198.194,288.366,3197.722,288.219,3196.63Z" fill="#41afa6"/>
          </g>
        </g>
      </g>
    </g>
  </g>
</svg>
